<svg xmlns="http://www.w3.org/2000/svg" xmlns:xlink="http://www.w3.org/1999/xlink" viewBox="0 0 481.81 481.81"><defs><style>.cls-1{fill:none;}.cls-2{fill:url(#Degradado_sin_nombre_13);}.cls-3{fill:#fff;}.cls-4{fill:#f15a24;}</style><linearGradient id="Degradado_sin_nombre_13" x1="8.3" y1="8.3" x2="473.51" y2="473.51" gradientUnits="userSpaceOnUse"><stop offset="0" stop-color="#ff6455"/><stop offset="0.27" stop-color="#ff765b"/><stop offset="0.73" stop-color="#ff9063"/><stop offset="1" stop-color="#f96"/></linearGradient></defs><title>chirpico</title><g id="Capa_2" data-name="Capa 2"><circle class="cls-1" cx="240.9" cy="240.9" r="240.9"/><rect class="cls-2" width="481.81" height="481.81" rx="28.35" ry="28.35"/><circle class="cls-1" cx="354.71" cy="260.32" r="2.5"/><path class="cls-1" d="M353.54,249a4.08,4.08,0,0,1-1.42,3.18,8,8,0,0,1,2.59,1.58c1.82,1.75,3.77,2.65,5.06,1.44s.12-5.59-3.07-7.41a14.25,14.25,0,0,0-4.37-1.76A4.14,4.14,0,0,1,353.54,249Z"/><path class="cls-3" d="M339.7,262.78c-3-7.64-.35-15.85,5.95-18.49a44.34,44.34,0,0,0-.56-6.86c-.18-1.07-.4-2.16-.68-3.26-1.9-7.44-6.33-15.41-15.83-23.19-18,2.54-36.19,27.13-48.6,45.91-4,6.07-7.76,11.64-11.27,16.75l-1.16,1.69c5.29.92,8.73,2.77,10.09,5.49a4.93,4.93,0,0,1,.31.75,5.77,5.77,0,0,1,.15,3.14c1,.83,2,1.73,3,2.73l1.92,1.88c7.24,7.12,14,13.69,22.56,17.9a44.32,44.32,0,0,0,6.61,2.6,54,54,0,0,0,21.38,1.74,33.46,33.46,0,0,0,6.31-1.2,26.74,26.74,0,0,0,2.61-.91,26,26,0,0,0,2.71-1.3,22.23,22.23,0,0,0,8-7.56,27.61,27.61,0,0,0,3.85-10.11,25,25,0,0,0,.34-6.66,4.79,4.79,0,0,0-.08-.5c-.28-.26-.76-.66-1.16-1-.14-.13-.31-.27-.47-.4l-.3-.26c-.62-.53-1.32-1.14-2-1.83a31.42,31.42,0,0,1-6.75-8.78A16.66,16.66,0,0,1,339.7,262.78Zm-11.25,9.38c-6,2.65-13.62-1.36-17-9s-1.16-15.91,4.87-18.56,13.61,1.37,16.95,9S334.47,269.52,328.45,272.16Z"/><path class="cls-3" d="M325.56,248.71c-4.25-4.1-7.28-1.44-7.28-1.44-1.9,2.65,0,4.17,1.14,4.7a16.85,16.85,0,0,1,4.93,3.11c1.82,1.75,4.33,2.13,5.62.91S329.82,252.81,325.56,248.71Z"/><path class="cls-3" d="M325.11,259.94a2.66,2.66,0,1,0,2.66,2.66A2.66,2.66,0,0,0,325.11,259.94Z"/><path class="cls-3" d="M354.23,272.81c.48.59,1,1.15,1.46,1.66a18.13,18.13,0,0,1,2.48-2.93,12.58,12.58,0,0,1-1.28.61A10.47,10.47,0,0,1,354.23,272.81Z"/><path class="cls-3" d="M368.9,248.69l5.29-15.82,6.88-11c-6.31.58-18.83,3.43-20.59,4.35-1.1.63-5.53,4.93-10.1,9.64a49.86,49.86,0,0,1,.73,7.68c4.93.58,9.69,4.34,11.94,10s1.31,11.86-2,15.64a32,32,0,0,1,6.74-3.47,44.28,44.28,0,0,1,11.52-2.17c.44,0,.89,0,1.32,0l-1-1.23Z"/><circle class="cls-3" cx="354.71" cy="260.32" r="2.5"/><path class="cls-3" d="M356.7,247.8a14.25,14.25,0,0,0-4.37-1.76c-3-.58-4,1-4,1-1.9,2.66-.28,3.65.86,4.18.65.31,1.74.54,2.9,1a8,8,0,0,1,2.59,1.58c1.82,1.75,3.77,2.65,5.06,1.44S359.89,249.62,356.7,247.8Z"/><path class="cls-3" d="M32.07,127.12h0c-.09,0-.18-.06-.27-.09Z"/><path class="cls-3" d="M47.23,87.66l-.35-.08.34.08Z"/><path class="cls-3" d="M10.09,99.9v0l.09-.14h0l-.05-.07A1,1,0,0,0,10.09,99.9Z"/><path class="cls-3" d="M10.13,99.42a.32.32,0,0,0,0,.07.08.08,0,0,1,0,.07l0,0Z"/><path class="cls-3" d="M33.54,136.45q.21,1.71.51,3.48c.19,1.14.44,2.22.71,3.27-.27-1-.52-2.13-.71-3.27S33.68,137.59,33.54,136.45Z"/><polygon class="cls-3" points="78.17 115.48 78.17 115.48 78.17 115.48 78.17 115.48 78.17 115.48"/><path class="cls-3" d="M10.07,99.65l0,.06a.76.76,0,0,0,0-.15A.47.47,0,0,1,10.07,99.65Z"/><path class="cls-3" d="M204.3,132.53c2.49-.76,4.95-1.42,7.37-2-.32-.75-.66-1.49-1-2.22a64.82,64.82,0,0,0-5.09-8.66,65.54,65.54,0,0,0-13.79-14.57c-10.65-8.28-23.93-12.89-37.56-14.42a116,116,0,0,0-20.68-.37,93.2,93.2,0,0,0-17.08,2.4c-1.13.27-2.26.52-3.38.84l-.1,0c-.7.19-1.38.43-2.07.66-1.27.48-2.54.93-3.79,1.45A89,89,0,0,0,91.67,104a75,75,0,0,0-13.49,11.5h0A46.55,46.55,0,0,1,90,101.78a65.61,65.61,0,0,1,15.72-9.37l1.38-.51c-.77-.79-1.54-1.56-2.37-2.28a48.76,48.76,0,0,0-8.58-6.2,38.38,38.38,0,0,0-20.32-4.88,44,44,0,0,0-10.6,1.87,54.86,54.86,0,0,0-10.19,4.14,31.37,31.37,0,0,0-5.52,3.35l-.4.31c-.19.14-.37.27-.55.42A45.82,45.82,0,0,0,39,99.49h0a42.94,42.94,0,0,1,6-9.64c.44-.52.9-1,1.37-1.52a56.86,56.86,0,0,0-16.3.39,39.15,39.15,0,0,0-10.19,3.33c-.78.43-1.62.75-2.37,1.2l-2.22,1.37-.56.34-.44.35-1,.87c-.66.58-1.3,1.19-1.88,1.81a12.78,12.78,0,0,0-1.27,1.52l0,.07,0,.07a1,1,0,0,0-.09.13,9.81,9.81,0,0,0,1.25,1.41c.6.59,1.31,1.18,2,1.8a57.63,57.63,0,0,1,4.42,4.1,21.79,21.79,0,0,1,3.5,5.22,51.94,51.94,0,0,1,2.25,5.48c.31.86.64,1.91.94,2.6a7.06,7.06,0,0,0,1.27,2,19.75,19.75,0,0,0,6.12,4.21A60.54,60.54,0,0,1,33.85,114a69.06,69.06,0,0,0-.34,13.32c0,.1,0,.21,0,.31a1.94,1.94,0,0,0,0,.24,83.38,83.38,0,0,0,2.05,13,29.21,29.21,0,0,0,5.59,11.49,27.85,27.85,0,0,0,10,7.58,36,36,0,0,0,4.4,1.69,124.74,124.74,0,0,1,13-31.51,122.42,122.42,0,0,0-9.69,32.45c-.15.91-.27,1.83-.4,2.75-.08.55-.17,1.11-.24,1.66,0,.36-.07.71-.11,1.06a123.21,123.21,0,0,0-.89,18,89.89,89.89,0,0,0,2.58,18.71c3,12.19,8.63,23.79,17.33,32.45a53.48,53.48,0,0,0,15,10.33,57.8,57.8,0,0,0,6.43,2.43c.18-3.06.42-4.86.44-5,.11-.81,2.85-21.28,17.21-45.51C129.45,177.11,155.47,147.37,204.3,132.53Z"/><path class="cls-3" d="M10.21,99.58l0-.07,0,0a.76.76,0,0,1,0,.15l.05.07a1,1,0,0,1,.09-.13Z"/><path class="cls-3" d="M178.54,94.17a71.58,71.58,0,0,1,7.4,3.57A71.58,71.58,0,0,0,178.54,94.17Z"/><path class="cls-3" d="M90.44,249.89a55,55,0,0,1-7-4.09A55,55,0,0,0,90.44,249.89Z"/><path class="cls-3" d="M56.28,195.23c1.45,12.83,6.91,36.69,27.14,50.57C63.21,231.92,57.75,208.06,56.28,195.23Z"/><path class="cls-3" d="M55.76,186.48s0,.21,0,.59C55.75,186.71,55.76,186.5,55.76,186.48Z"/><polygon class="cls-3" points="55.76 186.46 55.76 186.46 55.76 186.48 55.76 186.46"/><path class="cls-3" d="M98.61,253.16v0c-.51-.16-1-.31-1.55-.48Z"/><path class="cls-3" d="M57.12,167.71c-.08.61-.17,1.21-.24,1.79.07-.58.16-1.18.25-1.79,0-.1,0-.21,0-.31C57.16,167.5,57.14,167.61,57.12,167.71Z"/><path class="cls-3" d="M203.1,348c0-.69.08-1.39.13-2.1h-.12a4.35,4.35,0,0,1-1.44-.24c-3.59-1.22-4.46-6.42-4.81-10.22-.05-.55-.11-1.06-.17-1.58-.09-.75-.19-1.47-.31-2.16a15.91,15.91,0,0,1-.8,1.83,13.37,13.37,0,0,1-5.93,5.89,49.51,49.51,0,0,0-16.65,13c-.1.11-.19.25-.29.37A42.38,42.38,0,0,0,203.1,348Z"/><path class="cls-3" d="M148.8,346.17c.7.38,1.41.76,2.13,1.13l2.14,1.08c-.73-.36-1.42-.74-2.13-1.11S149.49,346.55,148.8,346.17Z"/><path class="cls-3" d="M187.21,334.57a8.19,8.19,0,0,0,3.78-4c-5.6-4.55-15.89-4.74-22.85-3.67a151,151,0,0,0-11,20.36c-.36.82-.72,1.65-1.08,2.5-.76-.34-1.54-.67-2.28-1,.75.35,1.49.71,2.26,1.05-.35.83-.7,1.67-1,2.53-5.86,14.6-10.45,33.07-8,52.35,1.73-5.52,10.8-34,17.73-48.57.42-.88.82-1.7,1.22-2.47l0,0c.47-.9.92-1.71,1.36-2.43a21.23,21.23,0,0,1,1.52-2.21A55.19,55.19,0,0,1,187.21,334.57Z"/><path class="cls-3" d="M153.07,348.38l.4.19.28.13-.28-.14Z"/><path class="cls-3" d="M176.75,306.53c-4.49,4.36-8.16,7.68-11.1,10.35-3.37,3.05-6.06,5.49-6.84,6.75a6.48,6.48,0,0,0,1.81-.5,26,26,0,0,1,4.18-1.19c1.15-.24,2.43-.45,3.79-.62s3.06-.32,4.7-.38c.67,0,1.35-.05,2-.05,6.37,0,13.29,1.21,18.28,4.8.35.26.72.49,1,.77l.11.09.56.46h0a.24.24,0,0,0,0-.08l-.09-.35c-.18-.64-.36-1.25-.48-1.66s-.26-.87-.37-1.25a4.56,4.56,0,0,0-.25-.66,1.51,1.51,0,0,1-.09-.18l0-.08a33.34,33.34,0,0,1-1.22-4.14,9,9,0,0,1,.09-4.49c.39-1.34,1.45-4,2.8-7.42,2-5.08,5.35-13.56,6.65-18.47l0-.65c0-.08,0-.18,0-.26l-.2.13C196.11,291.31,184.28,299.2,176.75,306.53Z"/><path class="cls-3" d="M241.73,420.48c-17.43-38-12.2-67.26-8.11-80.31a38.84,38.84,0,0,0-13.16.52c-1.49.29-3.12.66-4.92,1.14h0c-1.83.48-3.83,1.07-6,1.79l-.63.21c0,.11,0,.2,0,.31-.1,1.23-.18,2.44-.25,3.59s-.12,2.33-.16,3.44c-.74,20.44,3.2,27.87,3.24,27.95a.83.83,0,0,1,.09.16c14.15,29.13,28.21,44.83,34.42,50a61.77,61.77,0,0,0-4.31-8.56C241.82,420.66,241.78,420.57,241.73,420.48Z"/><path class="cls-3" d="M219.09,338.17,218,339.36c-.54.55-1.11,1.14-1.69,1.72.58-.58,1.15-1.17,1.69-1.72Z"/><path class="cls-3" d="M215.54,341.83h0l.73-.75Z"/><path class="cls-3" d="M175.42,356.05c-.86-.11-1.64-.25-2.32-.38C173.78,355.8,174.56,355.94,175.42,356.05Z"/><path class="cls-3" d="M203,351.21a45.78,45.78,0,0,1-27.53,4.84A45.78,45.78,0,0,0,203,351.21c.93-.48,1.86-1,2.8-1.58s1.89-1.22,2.84-1.9c-1,.68-1.9,1.31-2.84,1.9S203.88,350.73,203,351.21Z"/><path class="cls-3" d="M237.47,301.43a299.19,299.19,0,0,0-28.18-10.64c-.56-.16-1.1-.36-1.63-.55l-.23-.08c-1.28,4.7-3.8,11.25-6.68,18.54-1.24,3.15-2.32,5.87-2.64,7a5,5,0,0,0,.21,2.66,2.23,2.23,0,0,0,.29,1.49c.14.25.31.55.47.9,0,.1.06.18.1.28.43,1.29.92,2.77,1.4,4.49a52.92,52.92,0,0,1,1.73,9.5,16.2,16.2,0,0,0,1.05,5.14,2.76,2.76,0,0,1,.84-.49l1.08-.37a117.67,117.67,0,0,1,12.4-3.6c1.61-.35,3.08-.62,4.43-.82s2.72-.35,3.93-.43a39.88,39.88,0,0,1,7,.18l2.71.32c.89.12,1.75.22,2.62.31.63.06,1.25.12,1.91.16a6.38,6.38,0,0,0,1,0,2.24,2.24,0,0,0,.79-.17c.55-1.2-1.79-6.68-3.34-10.31-.52-1.23-1.07-2.51-1.6-3.8a21,21,0,0,1-1.12-3.85,24.21,24.21,0,0,1-.44-4.84,33.55,33.55,0,0,1,3-3.86h0a33.55,33.55,0,0,0-3,3.86,31.75,31.75,0,0,1,.44-5.06A39,39,0,0,1,237.47,301.43Z"/><path class="cls-3" d="M196.54,321.74c-.42-1.24-.77-2.32-1-3.3C195.43,320.07,196,320.67,196.54,321.74Z"/><path class="cls-3" d="M197.91,326.08c-.31-1.15-.66-2.28-.91-3.14a6.28,6.28,0,0,0-.46-1.2C197,323,197.45,324.42,197.91,326.08Z"/><path class="cls-3" d="M271.09,389.05a20.63,20.63,0,0,1,.66-6.15c.15-.55.2-.72-.34-2.7a26.51,26.51,0,0,0-1-3c-1.21-3-1.81-5.26-.06-10.39l0-.07c-.19-.17-.38-.34-.57-.49a2.7,2.7,0,0,1-1.12-2l-.87-13.89-7.05-14.74c-1.45-.56-2.85-1-4.14-1.4-3.25,7.65-8.5,24.79-4.14,49.29,2.22,12.46,7.84,21.89,16.72,28,7.43,5.12,15.06,6.4,17.89,6.43-.2-.67-.85-2.1-3-4.58C278.14,406.58,271.09,396.84,271.09,389.05Z"/><path class="cls-3" d="M274.28,343.73c-.18-.18-.37-.35-.56-.52a31.17,31.17,0,0,0-5.09-3.75l1.67,3.48,2.65,5.54a3.08,3.08,0,0,1,.26,1l.83,13.24.21.2a18.5,18.5,0,0,1,2.21,2.56c4.19,5.78,6.63,14.89,8.23,21.31,2.21-20.77-2-33.57-5.62-40.36A8.42,8.42,0,0,1,274.28,343.73Z"/><path class="cls-3" d="M253.37,303.14c1.2-2.67,2.13-4.37,2.23-4.56a2.21,2.21,0,0,1,.33-.47L267.32,285a2.8,2.8,0,0,1,.66-.53,3,3,0,0,1,.76-.31,2.7,2.7,0,0,1,.9-.08,15,15,0,0,1,2.08.36l.4.11a3.68,3.68,0,0,0,.45-.58c.2-.31.25-.54.21-.64-.1-.31-.66-.87-1.92-1.43a16.48,16.48,0,0,0-3.23-1c-.6-.13-1.26-.25-2-.35-.5-.07-1-.14-1.59-.19-1-.1-2-.17-3.19-.21-.3,0-.59,0-.9,0-.74,0-1.54-.09-2.32-.15-.61-.05-1.21-.09-1.84-.16-.39,0-.8-.11-1.19-.17-.93-.12-1.85-.25-2.82-.43-8.11-1.48-17.73-4.76-28-9.59l-.47-.22-.74-.36c-2.3-1.18-4.41-2-6.9,0a75.08,75.08,0,0,0-8.07,7.72l-.2.21c-.09.08-1.75,1.6-3.41,3.07l-1,.85a6.73,6.73,0,0,0,1.18,1.27,14.55,14.55,0,0,0,2.83,1.88l.64.32a20.62,20.62,0,0,0,3.12,1.18c4.59,1.35,17.11,5.83,26.85,10,2.24,1,4.34,1.91,6.15,2.8l.61.3,1.87,1h0c.93.51,1.73,1,2.37,1.43l.34.23c.86.63,3.16,2.28,3.78,2.14A1.86,1.86,0,0,0,253.37,303.14Z"/><path class="cls-3" d="M277.44,296.17a14.34,14.34,0,0,0-4-5c-.12-.09-.24-.15-.36-.23a8.67,8.67,0,0,0-2.62-1.22l-.15.17-10,11.53c-.33.63-1.26,2.43-2.36,5a68.57,68.57,0,0,0-5.42,19,2.32,2.32,0,0,1-.16.68,1.61,1.61,0,0,0,.07,1,2.1,2.1,0,0,0,1.18.69,5.57,5.57,0,0,0,.78.19c.62.11,1.3.26,2,.44s1.5.39,2.31.64l.92.37.05-.07,7.47,3a45.31,45.31,0,0,1,8.84,5.47,26,26,0,0,1,2.05,1.82.86.86,0,0,1,.14.13c1.11,1.11,1.64,1.14,1.65,1.14a3.88,3.88,0,0,0,1.17-1.92,15.64,15.64,0,0,0,1-4.5l0-.59c0-.12,0-.24,0-.36.13-2.28.2-4.46.25-6.59a122.43,122.43,0,0,0-.4-13.07C281.13,306.37,279.65,300.34,277.44,296.17Z"/><path class="cls-3" d="M287.64,328.91a18.66,18.66,0,0,0,10.57-3c3.75-2.57,6.37-6.75,7.82-12.45-8.57-3.56-15.32-9.16-21.8-15.34C287.38,307.18,287.92,319.07,287.64,328.91Z"/><path class="cls-3" d="M471.69,328c-.59-22.67-18-59-20.95-62.09-2.4-2.51-4.27-5.9-6.63-10.2-1.6-2.92-3.42-6.24-5.86-10.13a13.75,13.75,0,0,0-6.11-5.6,44.52,44.52,0,0,1-1.09,4.75c-2.44,8.54-3.07,15.66-1.75,19.54s1.51,6.74.67,9c3,3,7.11,7.1,10.35,10.53,3.83,4,7,10.38,10.08,16.5a110.72,110.72,0,0,0,5.93,10.86c4.49,6.84,12,24.45,14.42,31.27C471.31,340.29,471.9,336.1,471.69,328Z"/><path class="cls-3" d="M426.15,228.2c-.43-.54-1.59-2-16.17.5-9.49,1.61-16.48.18-21-1.57-.94-.36-1.77-.74-2.5-1.1-.41-.22-.81-.42-1.16-.62L379,235.49l-3.34,10.14-.65,2,1.35,1.72,7.31,9.28c.66-.23,1.31-.45,1.95-.64,1-.29,2-.53,2.9-.71a26.45,26.45,0,0,1,20.88,4.57,23.42,23.42,0,0,1,11.05,8.2c.21.26.38.48.55.68l3.54,1a.8.8,0,0,0,.22-.17c.08-.13.81-1.32-.63-5.51-1.73-5.06-1.15-12.94,1.67-22.81a37.79,37.79,0,0,0,1.32-6.87,26.91,26.91,0,0,0,.11-2.73,12,12,0,0,0-.92-5.26Z"/><path class="cls-3" d="M424.54,271.74l2,1.93Z"/><path class="cls-3" d="M377.94,274a32,32,0,0,1,.07-3.22c.05-.57.1-1.14.18-1.73a29.38,29.38,0,0,0-3.58.51,42.87,42.87,0,0,0-5,1.29c-4.12,1.57-6.74,3.38-8.42,5.3a11.37,11.37,0,0,0-1.44,2c.46.39.86.73,1.2,1a9.54,9.54,0,0,1,.78.79,4.53,4.53,0,0,1,.74,1.59c1,3.49.47,10.66-2.11,16.94a28.49,28.49,0,0,1-12.33,14.24c3.2,3.57,8,5.67,18.63,5.87h.19l19.64-22.47c.25-.67.47-1.33.68-2l-.31-.29A28.31,28.31,0,0,1,377.94,274Z"/><path class="cls-3" d="M403,310.93a1.72,1.72,0,0,1-.07-.21,13.52,13.52,0,0,0-2.63-3.14c-1.74-1.69-3.91-3.8-4.5-7.6-.19-1.19-.4-2.76-.59-4.47-.09-.88-.17-1.79-.23-2.72l0-.42-.13.43c-.25.87-.51,1.81-.78,2.81-3,10.89-6.62,28.89-2.37,39.85,2.22,5.72,3.82,7.63,4.5,8.23a3.87,3.87,0,0,0,.43-1.51C396.11,339.69,398.32,317.58,403,310.93Z"/><path class="cls-3" d="M393.4,292.59l-.15.34h.06C393.35,292.79,393.38,292.68,393.4,292.59Z"/><path class="cls-3" d="M411.31,286.33c-.7-.71-1.41-1.39-2.11-2a58.81,58.81,0,0,0-6.33-5.06l-.6-.41h0l-.45.48-.3.33-.15.16h0c-.11.8-.23,1.7-.36,2.67-.16,1.23-.33,2.56-.53,4.08a24.91,24.91,0,0,0-.13,3.06h-.09l.09.33c0,.75.05,1.55.11,2.39s.13,1.78.23,2.72q.21,2,.54,4.08a6.26,6.26,0,0,0,1.93,3.55c.3.31.63.63,1,1a25.73,25.73,0,0,1,2.15,2.31,13.85,13.85,0,0,1,1.48,2.16,9.23,9.23,0,0,1,.86,3.32c.59,5.55-1,15.64-3.39,30.09q-.5,3-1,5.9c-.37,2.29-.71,4.3-1,6.08-.54,3.21-1,6.11-1.2,7.86,3.58-1.92,13.05-12.19,19.94-40.9,3.3-13.75-2.14-24.51-8.65-32C412.66,287.75,412,287,411.31,286.33Z"/><path class="cls-3" d="M402.66,278.42l0,0h0Z"/><path class="cls-3" d="M404.12,277.05l.15-.13.64-.54-.64.54Z"/><path class="cls-3" d="M390.48,286.1c.2-.37.41-.72.61-1.08s.35-.65.53-.95c.08-.15.17-.29.26-.43.3-.51.6-1,.9-1.48l.42-.62c.25-.4.51-.78.78-1.15.14-.21.28-.41.43-.61l.44-.6.37-.49c.13-.16.25-.34.38-.5l.56-.67h0l.57-.69,2.69-2.83.06-.06.11-.1c.26-.24.51-.48.77-.7l.35-.31.05-.05q.44-.37.87-.72l0,0,.24-.2c.37-.29.74-.57,1.11-.83l.27-.19.81-.56.38-.24.68-.42.38-.22.68-.38.31-.16c.32-.17.63-.32.93-.46l.13-.06c.26-.12.51-.24.76-.34l.09,0c-.43-.38-.91-.78-1.42-1.18a21.16,21.16,0,0,0-17-4.2,23.18,23.18,0,0,0-2.84.67l-2.51,1.41c-.1.32-.16.62-.24.94s-.23.81-.32,1.21l-.27.21.15.38a31.76,31.76,0,0,0-.48,3.15q-.13,1.35-.15,2.61a22.48,22.48,0,0,0,5.83,15.51l.17-.33a.54.54,0,0,1,.05-.11c.25-.5.49-1,.74-1.48C390.27,286.52,390.38,286.3,390.48,286.1Z"/><path class="cls-3" d="M411.38,272.62c-.2.07-.41.14-.62.23l-.18.08-.54.22-.22.1-.72.36-.05,0c-.26.13-.54.29-.82.45l-.24.14-.67.41-.24.16c-.2.12-.4.26-.6.4l-.33.23.33-.22c1.37,1,2.89,2.17,4.49,3.54a18.18,18.18,0,0,0,.43-6.13h0Z"/><path class="cls-3" d="M398,284.1l.24-.35-.24.35,0,.09Z"/><path class="cls-3" d="M396.16,277.52c-.2,1.45-.46,3.32-.76,5.63Z"/><path class="cls-3" d="M337.11,201.89c-9.78-17.91-42.75-69-99.79-69a101,101,0,0,0-17,1.48c-1.09.18-2.18.38-3.27.61-.45.08-.89.18-1.33.27l-1.92.42q-3.81.88-7.76,2.08c-3.8,1.15-7.45,2.41-11,3.74a149.45,149.45,0,0,0-44.05,25.56q-3.41,2.9-6.5,5.86c-34.29,32.9-39.87,72.22-39.94,72.78,0,.08-.31,2.17-.5,5.72-.05,1-.1,2-.13,3.21,0,1,0,2.08,0,3.22a120.42,120.42,0,0,0,4.45,32.74c7.1,24.78,21.76,42.92,43.63,54.19a154,154,0,0,1,8.32-15.9c-3.25.65-5-.56-5.86-1.48a5.47,5.47,0,0,1-.58-6.22c1.09-2,3.57-4.29,8.07-8.36,2.91-2.64,6.54-5.93,11-10.22,7.57-7.37,18.89-15,25.32-19.16a6.58,6.58,0,0,1-.76-1.87,4.3,4.3,0,0,1,1.38-4.3c1.71-1.44,4.22-3.74,4.75-4.23a79.29,79.29,0,0,1,8.67-8.26c5.43-4.35,10.77-1.64,12.79-.62l.52.26.55.26c10.49,5,20.2,8.18,28.08,9.4,1,.15,1.95.29,2.88.38s2,.17,2.94.19h0l1.24,0c4.28-6.16,9-13.08,14.09-20.83C287.18,236.09,304,213.35,322.09,207a30.52,30.52,0,0,1,4.1-1.14,26.71,26.71,0,0,1,4.06-.53c.44,0,.89-.05,1.33-.05h.18A21.65,21.65,0,0,0,338,205,8.4,8.4,0,0,0,337.11,201.89Z"/><path class="cls-3" d="M333.62,208.09h0c2.46,0,6.51-.21,6.93-1.89a5.91,5.91,0,0,0,.13-.94,5.91,5.91,0,0,1-.13.94C340.13,207.88,336.08,208.1,333.62,208.09Z"/><path class="cls-3" d="M329.38,208.14h0a25,25,0,0,0-3.71.63A25,25,0,0,1,329.38,208.14Z"/><path class="cls-3" d="M340.36,202.81a12.16,12.16,0,0,0-.83-2.19l-.92-1.66.92,1.66A12.16,12.16,0,0,1,340.36,202.81Z"/><polygon class="cls-4" points="78.18 115.48 78.17 115.48 78.17 115.48 78.18 115.48"/><polygon class="cls-4" points="112.26 92.51 112.26 92.51 112.26 92.51 112.26 92.51"/></g></svg>